<svg width="134" height="89" viewBox="0 0 134 89" fill="none" xmlns="http://www.w3.org/2000/svg">
<path d="M26.4638 59.6898L17.7692 52.637M17.7692 52.637L28.542 9.26771M17.7692 52.637L2 48.7187L12.7696 5.34947L28.542 9.26771M17.7692 52.637V52.6401L28.542 9.26771M28.542 9.26771L40.657 6.55654C44.349 5.72865 48.1831 5.77289 51.8562 6.68609L83.7261 14.6016C86.9917 15.4137 88.9846 18.7189 88.1698 21.9862C87.3581 25.2535 84.0514 27.2411 80.7858 26.4321L63.0427 22.0241C60.8793 30.7327 52.0646 36.0413 43.3542 33.88L39.4095 32.9004M96.3654 9.76697L117.728 49.0189L110.628 59.2032C108.465 62.3093 105.606 64.8657 102.284 66.6763L66.302 86.258C63.3459 87.8664 59.6444 86.7731 58.0369 83.8186C56.4293 80.8609 57.5221 77.1607 60.475 75.5524L72.9628 68.7555L53.3374 79.4358C50.3813 81.0442 46.6798 79.9509 45.0722 76.9964C43.4615 74.0419 44.5543 70.3386 47.5104 68.7302L67.1358 58.0498L40.3728 72.6137C37.4166 74.2221 33.7183 73.1319 32.1076 70.1743C30.5001 67.2198 31.5897 63.5196 34.5458 61.908L61.3088 47.3442L41.6834 58.0245C38.7273 59.6329 35.0259 58.5396 33.4183 55.5851C31.8107 52.6275 32.9035 48.9273 35.8596 47.3189L45.8334 42.2505M117.728 49.0221L132 41.2551L110.638 2L96.3623 9.76697L117.725 49.0189L117.728 49.0221Z" stroke="#00A5B5" stroke-width="3" stroke-miterlimit="10" stroke-linecap="round" stroke-linejoin="round"/>
</svg>
