<svg width="135" height="91" viewBox="0 0 135 91" fill="none" xmlns="http://www.w3.org/2000/svg">
<g clip-path="url(#clip0_368_48)">
<path d="M15.5298 76.8735C14.8458 76.8735 14.3429 76.3919 14.3429 75.7498V64.593C14.3429 63.1483 13.1158 61.9844 11.5669 61.9844H5.19003C3.64108 61.9844 2.39388 63.1282 2.39388 64.593V74.6261H3.58073C4.26469 74.6261 4.76759 75.1077 4.76759 75.7498V87.649C4.76759 88.2711 5.29061 88.7727 5.95445 88.7727C6.61828 88.7727 7.14131 88.2912 7.14131 87.649V75.7498C7.14131 75.1077 7.66433 74.6261 8.32816 74.6261C8.992 74.6261 9.51502 75.1077 9.51502 75.7498V87.649C9.51502 88.2711 10.038 88.7727 10.7019 88.7727C11.3657 88.7727 11.8887 88.2912 11.8887 87.649V77.9771C11.8887 77.3551 12.4118 76.8534 13.0756 76.8534C13.7394 76.8534 14.2625 77.335 14.2625 77.9771V87.649C14.2625 89.5152 12.6733 91.0001 10.6818 91.0001C9.75642 91.0001 8.93165 90.659 8.28793 90.1372C7.64421 90.659 6.81945 91.0001 5.8941 91.0001C3.90259 91.0001 2.31341 89.5152 2.31341 87.649V76.8735H1.12655C0.442603 76.8735 -0.0603027 76.3919 -0.0603027 75.7498V64.593C-0.0603027 61.9242 2.25306 59.7571 5.10957 59.7571H11.4864C14.3429 59.7571 16.6563 61.9042 16.6563 64.593V75.7498C16.6563 76.3719 16.1333 76.8735 15.4694 76.8735" fill="#878786"/>
<path d="M8.34834 58.2922C5.47172 58.2922 3.17847 56.1452 3.17847 53.4563C3.17847 50.7674 5.49183 48.6204 8.34834 48.6204C11.2048 48.6204 13.5182 50.7674 13.5182 53.4563C13.5182 56.1452 11.2048 58.2922 8.34834 58.2922ZM8.34834 50.8678C6.79939 50.8678 5.55218 52.0115 5.55218 53.4764C5.55218 54.9412 6.77927 56.085 8.34834 56.085C9.9174 56.085 11.1445 54.9412 11.1445 53.4764C11.1445 52.0115 9.9174 50.8678 8.34834 50.8678Z" fill="#878786"/>
<path d="M62.1189 76.8735C61.4349 76.8735 60.932 76.3919 60.932 75.7498V64.593C60.932 63.1483 59.7049 61.9844 58.156 61.9844H51.7791C50.2302 61.9844 48.983 63.1282 48.983 64.593V74.6261H50.1698C50.8538 74.6261 51.3567 75.1077 51.3567 75.7498V87.649C51.3567 88.2711 51.8797 88.7727 52.5436 88.7727C53.2074 88.7727 53.7304 88.2912 53.7304 87.649V75.7498C53.7304 75.1077 54.2534 74.6261 54.9173 74.6261C55.5811 74.6261 56.1041 75.1077 56.1041 75.7498V87.649C56.1041 88.2711 56.6272 88.7727 57.291 88.7727C57.9548 88.7727 58.4778 88.2912 58.4778 87.649V77.9771C58.4778 77.3551 59.0009 76.8534 59.6647 76.8534C60.3285 76.8534 60.8516 77.335 60.8516 77.9771V87.649C60.8516 89.5152 59.2624 91.0001 57.2709 91.0001C56.3455 91.0001 55.5208 90.659 54.877 90.1372C54.2333 90.659 53.4086 91.0001 52.4832 91.0001C50.4917 91.0001 48.9025 89.5152 48.9025 87.649V76.8735H47.7157C47.0317 76.8735 46.5288 76.3919 46.5288 75.7498V64.593C46.5288 61.9242 48.8422 59.7571 51.6987 59.7571H58.0755C60.932 59.7571 63.2454 61.9042 63.2454 64.593V75.7498C63.2454 76.3719 62.7224 76.8735 62.0585 76.8735" fill="#878786"/>
<path d="M54.9575 58.2922C52.0808 58.2922 49.7876 56.1452 49.7876 53.4563C49.7876 50.7674 52.101 48.6204 54.9575 48.6204C57.814 48.6204 60.1273 50.7674 60.1273 53.4563C60.1273 56.1452 57.814 58.2922 54.9575 58.2922ZM54.9575 50.8678C53.4085 50.8678 52.1613 52.0115 52.1613 53.4764C52.1613 54.9412 53.3884 56.085 54.9575 56.085C56.5265 56.085 57.7536 54.9412 57.7536 53.4764C57.7536 52.0115 56.5265 50.8678 54.9575 50.8678Z" fill="#878786"/>
<path d="M133.813 76.8735C133.129 76.8735 132.626 76.3919 132.626 75.7498V64.593C132.626 63.1483 131.399 61.9844 129.85 61.9844H123.473C121.925 61.9844 120.677 63.1282 120.677 64.593V74.6261H121.864C122.548 74.6261 123.051 75.1077 123.051 75.7498V87.649C123.051 88.2711 123.574 88.7727 124.238 88.7727C124.902 88.7727 125.425 88.2912 125.425 87.649V75.7498C125.425 75.1077 125.948 74.6261 126.612 74.6261C127.275 74.6261 127.798 75.1077 127.798 75.7498V87.649C127.798 88.2711 128.321 88.7727 128.985 88.7727C129.649 88.7727 130.172 88.2912 130.172 87.649V77.9771C130.172 77.3551 130.695 76.8534 131.359 76.8534C132.023 76.8534 132.546 77.335 132.546 77.9771V87.649C132.546 89.5152 130.957 91.0001 128.965 91.0001C128.04 91.0001 127.215 90.659 126.571 90.1372C125.928 90.659 125.103 91.0001 124.178 91.0001C122.186 91.0001 120.597 89.5152 120.597 87.649V76.8735H119.41C118.726 76.8735 118.223 76.3919 118.223 75.7498V64.593C118.223 61.9242 120.537 59.7571 123.393 59.7571H129.77C132.626 59.7571 134.94 61.9042 134.94 64.593V75.7498C134.94 76.3719 134.417 76.8735 133.753 76.8735" fill="#878786"/>
<path d="M126.652 58.2922C123.775 58.2922 121.482 56.1452 121.482 53.4563C121.482 50.7674 123.795 48.6204 126.652 48.6204C129.508 48.6204 131.822 50.7674 131.822 53.4563C131.822 56.1452 129.508 58.2922 126.652 58.2922ZM126.652 50.8678C125.103 50.8678 123.876 52.0115 123.876 53.4764C123.876 54.9412 125.103 56.085 126.652 56.085C128.201 56.085 129.428 54.9412 129.428 53.4764C129.428 52.0115 128.201 50.8678 126.652 50.8678Z" fill="#878786"/>
<path d="M85.4336 76.8735C84.7496 76.8735 84.2467 76.3919 84.2467 75.7498V64.593C84.2467 63.1483 83.0196 61.9844 81.4707 61.9844H75.0938C73.5449 61.9844 72.2977 63.1282 72.2977 64.593V74.6261H73.4845C74.1685 74.6261 74.6714 75.1077 74.6714 75.7498V87.649C74.6714 88.2711 75.1944 88.7727 75.8583 88.7727C76.5221 88.7727 77.0451 88.2912 77.0451 87.649V75.7498C77.0451 75.1077 77.5681 74.6261 78.232 74.6261C78.8958 74.6261 79.4188 75.1077 79.4188 75.7498V87.649C79.4188 88.2711 79.9418 88.7727 80.6057 88.7727C81.2695 88.7727 81.7925 88.2912 81.7925 87.649V77.9771C81.7925 77.3551 82.3156 76.8534 82.9794 76.8534C83.6432 76.8534 84.1663 77.335 84.1663 77.9771V87.649C84.1663 89.5152 82.5771 91.0001 80.5856 91.0001C79.6602 91.0001 78.8355 90.659 78.1917 90.1372C77.548 90.659 76.7233 91.0001 75.7979 91.0001C73.8064 91.0001 72.2172 89.5152 72.2172 87.649V76.8735H71.0304C70.3464 76.8735 69.8435 76.3919 69.8435 75.7498V64.593C69.8435 61.9242 72.1569 59.7571 75.0134 59.7571H81.3902C84.2467 59.7571 86.5601 61.9042 86.5601 64.593V75.7498C86.5601 76.3719 86.0371 76.8735 85.3732 76.8735" fill="#878786"/>
<path d="M78.2722 58.2922C75.3955 58.2922 73.1023 56.1452 73.1023 53.4563C73.1023 50.7674 75.4157 48.6204 78.2722 48.6204C81.1287 48.6204 83.442 50.7674 83.442 53.4563C83.442 56.1452 81.1287 58.2922 78.2722 58.2922ZM78.2722 50.8678C76.7232 50.8678 75.476 52.0115 75.476 53.4764C75.476 54.9412 76.7031 56.085 78.2722 56.085C79.8412 56.085 81.0683 54.9412 81.0683 53.4764C81.0683 52.0115 79.8412 50.8678 78.2722 50.8678Z" fill="#878786"/>
<path d="M38.8242 76.8735C38.1403 76.8735 37.6373 76.3919 37.6373 75.7498V64.593C37.6373 63.1483 36.4103 61.9844 34.8613 61.9844H28.4845C26.9355 61.9844 25.6883 63.1282 25.6883 64.593V74.6261H26.8752C27.5591 74.6261 28.062 75.1077 28.062 75.7498V87.649C28.062 88.2711 28.585 88.7727 29.2489 88.7727C29.9127 88.7727 30.4357 88.2912 30.4357 87.649V75.7498C30.4357 75.1077 30.9588 74.6261 31.6226 74.6261C32.2864 74.6261 32.8095 75.1077 32.8095 75.7498V87.649C32.8095 88.2711 33.3325 88.7727 33.9963 88.7727C34.6601 88.7727 35.1832 88.2912 35.1832 87.649V77.9771C35.1832 77.3551 35.7062 76.8534 36.37 76.8534C37.0339 76.8534 37.5569 77.335 37.5569 77.9771V87.649C37.5569 89.5152 35.9677 91.0001 33.9762 91.0001C33.0508 91.0001 32.2261 90.659 31.5824 90.1372C30.9386 90.659 30.1139 91.0001 29.1885 91.0001C27.197 91.0001 25.6078 89.5152 25.6078 87.649V76.8735H24.421C23.737 76.8735 23.2341 76.3919 23.2341 75.7498V64.593C23.2341 61.9242 25.5475 59.7571 28.404 59.7571H34.7808C37.6374 59.7571 39.9507 61.9042 39.9507 64.593V75.7498C39.9507 76.3719 39.4277 76.8735 38.7639 76.8735" fill="#878786"/>
<path d="M31.663 58.2922C28.7864 58.2922 26.4932 56.1452 26.4932 53.4563C26.4932 50.7674 28.8065 48.6204 31.663 48.6204C34.5195 48.6204 36.8329 50.7674 36.8329 53.4563C36.8329 56.1452 34.5195 58.2922 31.663 58.2922ZM31.663 50.8678C30.1141 50.8678 28.8669 52.0115 28.8669 53.4764C28.8669 54.9412 30.094 56.085 31.663 56.085C33.2321 56.085 34.4592 54.9412 34.4592 53.4764C34.4592 52.0115 33.2321 50.8678 31.663 50.8678Z" fill="#878786"/>
<path d="M110.499 76.8735C109.815 76.8735 109.312 76.3919 109.312 75.7498V64.593C109.312 63.1483 108.085 61.9844 106.536 61.9844H100.159C98.6098 61.9844 97.3626 63.1282 97.3626 64.593V74.6261H98.5495C99.2334 74.6261 99.7363 75.1077 99.7363 75.7498V87.649C99.7363 88.2711 100.259 88.7727 100.923 88.7727C101.587 88.7727 102.11 88.2912 102.11 87.649V75.7498C102.11 75.1077 102.633 74.6261 103.297 74.6261C103.961 74.6261 104.484 75.1077 104.484 75.7498V87.649C104.484 88.2711 105.007 88.7727 105.671 88.7727C106.334 88.7727 106.857 88.2912 106.857 87.649V77.9771C106.857 77.3551 107.381 76.8534 108.044 76.8534C108.708 76.8534 109.231 77.335 109.231 77.9771V87.649C109.231 89.5152 107.642 91.0001 105.651 91.0001C104.725 91.0001 103.9 90.659 103.257 90.1372C102.613 90.659 101.788 91.0001 100.863 91.0001C98.8713 91.0001 97.2822 89.5152 97.2822 87.649V76.8735H96.0953C95.4114 76.8735 94.9084 76.3919 94.9084 75.7498V64.593C94.9084 61.9242 97.2218 59.7571 100.078 59.7571H106.455C109.312 59.7571 111.625 61.9042 111.625 64.593V75.7498C111.625 76.3719 111.102 76.8735 110.438 76.8735" fill="#878786"/>
<path d="M103.337 58.2922C100.46 58.2922 98.1672 56.1452 98.1672 53.4563C98.1672 50.7674 100.481 48.6204 103.337 48.6204C106.194 48.6204 108.507 50.7674 108.507 53.4563C108.507 56.1452 106.194 58.2922 103.337 58.2922ZM103.337 50.8678C101.788 50.8678 100.561 52.0115 100.561 53.4764C100.561 54.9412 101.788 56.085 103.337 56.085C104.886 56.085 106.113 54.9412 106.113 53.4764C106.113 52.0115 104.886 50.8678 103.337 50.8678Z" fill="#878786"/>
<path d="M15.5298 28.2331C14.8458 28.2331 14.3429 27.7515 14.3429 27.1294V15.9727C14.3429 14.5279 13.1158 13.3641 11.5669 13.3641H5.19003C3.64108 13.3641 2.39388 14.5078 2.39388 15.9727V26.0057H3.58073C4.26469 26.0057 4.76759 26.4873 4.76759 27.1294V39.0086C4.76759 39.6307 5.29061 40.1323 5.95445 40.1323C6.61828 40.1323 7.14131 39.6507 7.14131 39.0086V27.1294C7.14131 26.4873 7.66433 26.0057 8.32816 26.0057C8.992 26.0057 9.51502 26.4873 9.51502 27.1294V39.0086C9.51502 39.6307 10.038 40.1323 10.7019 40.1323C11.3657 40.1323 11.8887 39.6507 11.8887 39.0086V29.3367C11.8887 28.7147 12.4118 28.2331 13.0756 28.2331C13.7394 28.2331 14.2625 28.7147 14.2625 29.3367V39.0086C14.2625 40.8748 12.6733 42.3597 10.6818 42.3597C9.75642 42.3597 8.93165 42.0185 8.28793 41.4968C7.64421 42.0185 6.81945 42.3597 5.8941 42.3597C3.90259 42.3597 2.31341 40.8748 2.31341 39.0086V28.2331H1.12655C0.442603 28.2331 -0.0603027 27.7515 -0.0603027 27.1294V15.9727C-0.0603027 13.3039 2.25306 11.1367 5.10957 11.1367H11.4864C14.3429 11.1367 16.6563 13.2838 16.6563 15.9727V27.1294C16.6563 27.7515 16.1333 28.2331 15.4694 28.2331" fill="#878786"/>
<path d="M8.34834 9.65182C5.47172 9.65182 3.17847 7.50474 3.17847 4.81588C3.17847 2.12701 5.49183 0 8.34834 0C11.2048 0 13.5182 2.14708 13.5182 4.83594C13.5182 7.52481 11.2048 9.67189 8.34834 9.67189M8.34834 2.22734C6.79939 2.22734 5.55218 3.37111 5.55218 4.83594C5.55218 6.30077 6.77927 7.44454 8.34834 7.44454C9.9174 7.44454 11.1445 6.30077 11.1445 4.83594C11.1445 3.37111 9.9174 2.22734 8.34834 2.22734Z" fill="#878786"/>
<path d="M62.1189 28.2331C61.4349 28.2331 60.932 27.7515 60.932 27.1294V15.9727C60.932 14.5279 59.7049 13.3641 58.156 13.3641H51.7791C50.2302 13.3641 48.983 14.5078 48.983 15.9727V26.0057H50.1698C50.8538 26.0057 51.3567 26.4873 51.3567 27.1294V39.0086C51.3567 39.6307 51.8797 40.1323 52.5436 40.1323C53.2074 40.1323 53.7304 39.6507 53.7304 39.0086V27.1294C53.7304 26.4873 54.2534 26.0057 54.9173 26.0057C55.5811 26.0057 56.1041 26.4873 56.1041 27.1294V39.0086C56.1041 39.6307 56.6272 40.1323 57.291 40.1323C57.9548 40.1323 58.4778 39.6507 58.4778 39.0086V29.3367C58.4778 28.7147 59.0009 28.2331 59.6647 28.2331C60.3285 28.2331 60.8516 28.7147 60.8516 29.3367V39.0086C60.8516 40.8748 59.2624 42.3597 57.2709 42.3597C56.3455 42.3597 55.5208 42.0185 54.877 41.4968C54.2333 42.0185 53.4086 42.3597 52.4832 42.3597C50.4917 42.3597 48.9025 40.8748 48.9025 39.0086V28.2331H47.7157C47.0317 28.2331 46.5288 27.7515 46.5288 27.1294V15.9727C46.5288 13.3039 48.8422 11.1367 51.6987 11.1367H58.0755C60.932 11.1367 63.2454 13.2838 63.2454 15.9727V27.1294C63.2454 27.7515 62.7224 28.2331 62.0585 28.2331" fill="#878786"/>
<path d="M54.9575 9.65187C52.0808 9.65187 49.7876 7.50479 49.7876 4.81592C49.7876 2.12706 52.101 -0.0200195 54.9575 -0.0200195C57.814 -0.0200195 60.1273 2.12706 60.1273 4.81592C60.1273 7.50479 57.814 9.65187 54.9575 9.65187ZM54.9575 2.22739C53.4085 2.22739 52.1613 3.37116 52.1613 4.83599C52.1613 6.30082 53.3884 7.44459 54.9575 7.44459C56.5265 7.44459 57.7536 6.30082 57.7536 4.83599C57.7536 3.37116 56.5265 2.22739 54.9575 2.22739Z" fill="#878786"/>
<path d="M133.813 28.2331C133.129 28.2331 132.626 27.7515 132.626 27.1294V15.9727C132.626 14.5279 131.399 13.3641 129.85 13.3641H123.473C121.925 13.3641 120.677 14.5078 120.677 15.9727V26.0057H121.864C122.548 26.0057 123.051 26.4873 123.051 27.1294V39.0086C123.051 39.6307 123.574 40.1323 124.238 40.1323C124.902 40.1323 125.425 39.6507 125.425 39.0086V27.1294C125.425 26.4873 125.948 26.0057 126.612 26.0057C127.275 26.0057 127.798 26.4873 127.798 27.1294V39.0086C127.798 39.6307 128.321 40.1323 128.985 40.1323C129.649 40.1323 130.172 39.6507 130.172 39.0086V29.3367C130.172 28.7147 130.695 28.2331 131.359 28.2331C132.023 28.2331 132.546 28.7147 132.546 29.3367V39.0086C132.546 40.8748 130.957 42.3597 128.965 42.3597C128.04 42.3597 127.215 42.0185 126.571 41.4968C125.928 42.0185 125.103 42.3597 124.178 42.3597C122.186 42.3597 120.597 40.8748 120.597 39.0086V28.2331H119.41C118.726 28.2331 118.223 27.7515 118.223 27.1294V15.9727C118.223 13.3039 120.537 11.1367 123.393 11.1367H129.77C132.626 11.1367 134.94 13.2838 134.94 15.9727V27.1294C134.94 27.7515 134.417 28.2331 133.753 28.2331" fill="#878786"/>
<path d="M126.652 9.65187C123.775 9.65187 121.482 7.50479 121.482 4.81592C121.482 2.12706 123.795 -0.0200195 126.652 -0.0200195C129.508 -0.0200195 131.822 2.12706 131.822 4.81592C131.822 7.50479 129.508 9.65187 126.652 9.65187ZM126.652 2.22739C125.103 2.22739 123.876 3.37116 123.876 4.83599C123.876 6.30082 125.103 7.44459 126.652 7.44459C128.201 7.44459 129.428 6.30082 129.428 4.83599C129.428 3.37116 128.201 2.22739 126.652 2.22739Z" fill="#878786"/>
<path d="M85.4336 28.2331C84.7496 28.2331 84.2467 27.7515 84.2467 27.1294V15.9727C84.2467 14.5279 83.0196 13.3641 81.4707 13.3641H75.0938C73.5449 13.3641 72.2977 14.5078 72.2977 15.9727V26.0057H73.4845C74.1685 26.0057 74.6714 26.4873 74.6714 27.1294V39.0086C74.6714 39.6307 75.1944 40.1323 75.8583 40.1323C76.5221 40.1323 77.0451 39.6507 77.0451 39.0086V27.1294C77.0451 26.4873 77.5681 26.0057 78.232 26.0057C78.8958 26.0057 79.4188 26.4873 79.4188 27.1294V39.0086C79.4188 39.6307 79.9418 40.1323 80.6057 40.1323C81.2695 40.1323 81.7925 39.6507 81.7925 39.0086V29.3367C81.7925 28.7147 82.3156 28.2331 82.9794 28.2331C83.6432 28.2331 84.1663 28.7147 84.1663 29.3367V39.0086C84.1663 40.8748 82.5771 42.3597 80.5856 42.3597C79.6602 42.3597 78.8355 42.0185 78.1917 41.4968C77.548 42.0185 76.7233 42.3597 75.7979 42.3597C73.8064 42.3597 72.2172 40.8748 72.2172 39.0086V28.2331H71.0304C70.3464 28.2331 69.8435 27.7515 69.8435 27.1294V15.9727C69.8435 13.3039 72.1569 11.1367 75.0134 11.1367H81.3902C84.2467 11.1367 86.5601 13.2838 86.5601 15.9727V27.1294C86.5601 27.7515 86.0371 28.2331 85.3732 28.2331" fill="#878786"/>
<path d="M78.2722 9.65187C75.3955 9.65187 73.1023 7.50479 73.1023 4.81592C73.1023 2.12706 75.4157 -0.0200195 78.2722 -0.0200195C81.1287 -0.0200195 83.442 2.12706 83.442 4.81592C83.442 7.50479 81.1287 9.65187 78.2722 9.65187ZM78.2722 2.22739C76.7232 2.22739 75.476 3.37116 75.476 4.83599C75.476 6.30082 76.7031 7.44459 78.2722 7.44459C79.8412 7.44459 81.0683 6.30082 81.0683 4.83599C81.0683 3.37116 79.8412 2.22739 78.2722 2.22739Z" fill="#878786"/>
<path d="M38.8242 28.2331C38.1403 28.2331 37.6373 27.7515 37.6373 27.1294V15.9727C37.6373 14.5279 36.4103 13.3641 34.8613 13.3641H28.4845C26.9355 13.3641 25.6883 14.5078 25.6883 15.9727V26.0057H26.8752C27.5591 26.0057 28.062 26.4873 28.062 27.1294V39.0086C28.062 39.6307 28.585 40.1323 29.2489 40.1323C29.9127 40.1323 30.4357 39.6507 30.4357 39.0086V27.1294C30.4357 26.4873 30.9588 26.0057 31.6226 26.0057C32.2864 26.0057 32.8095 26.4873 32.8095 27.1294V39.0086C32.8095 39.6307 33.3325 40.1323 33.9963 40.1323C34.6601 40.1323 35.1832 39.6507 35.1832 39.0086V29.3367C35.1832 28.7147 35.7062 28.2331 36.37 28.2331C37.0339 28.2331 37.5569 28.7147 37.5569 29.3367V39.0086C37.5569 40.8748 35.9677 42.3597 33.9762 42.3597C33.0508 42.3597 32.2261 42.0185 31.5824 41.4968C30.9386 42.0185 30.1139 42.3597 29.1885 42.3597C27.197 42.3597 25.6078 40.8748 25.6078 39.0086V28.2331H24.421C23.737 28.2331 23.2341 27.7515 23.2341 27.1294V15.9727C23.2341 13.3039 25.5475 11.1367 28.404 11.1367H34.7808C37.6374 11.1367 39.9507 13.2838 39.9507 15.9727V27.1294C39.9507 27.7515 39.4277 28.2331 38.7639 28.2331" fill="#878786"/>
<path d="M31.663 9.65187C28.7864 9.65187 26.4932 7.50479 26.4932 4.81592C26.4932 2.12706 28.8065 -0.0200195 31.663 -0.0200195C34.5195 -0.0200195 36.8329 2.12706 36.8329 4.81592C36.8329 7.50479 34.5195 9.65187 31.663 9.65187ZM31.663 2.22739C30.1141 2.22739 28.8669 3.37116 28.8669 4.83599C28.8669 6.30082 30.094 7.44459 31.663 7.44459C33.2321 7.44459 34.4592 6.30082 34.4592 4.83599C34.4592 3.37116 33.2321 2.22739 31.663 2.22739Z" fill="#878786"/>
<path d="M110.499 28.2331C109.815 28.2331 109.312 27.7515 109.312 27.1294V15.9727C109.312 14.5279 108.085 13.3641 106.536 13.3641H100.159C98.6098 13.3641 97.3626 14.5078 97.3626 15.9727V26.0057H98.5495C99.2334 26.0057 99.7363 26.4873 99.7363 27.1294V39.0086C99.7363 39.6307 100.259 40.1323 100.923 40.1323C101.587 40.1323 102.11 39.6507 102.11 39.0086V27.1294C102.11 26.4873 102.633 26.0057 103.297 26.0057C103.961 26.0057 104.484 26.4873 104.484 27.1294V39.0086C104.484 39.6307 105.007 40.1323 105.671 40.1323C106.334 40.1323 106.857 39.6507 106.857 39.0086V29.3367C106.857 28.7147 107.381 28.2331 108.044 28.2331C108.708 28.2331 109.231 28.7147 109.231 29.3367V39.0086C109.231 40.8748 107.642 42.3597 105.651 42.3597C104.725 42.3597 103.9 42.0185 103.257 41.4968C102.613 42.0185 101.788 42.3597 100.863 42.3597C98.8713 42.3597 97.2822 40.8748 97.2822 39.0086V28.2331H96.0953C95.4114 28.2331 94.9084 27.7515 94.9084 27.1294V15.9727C94.9084 13.3039 97.2218 11.1367 100.078 11.1367H106.455C109.312 11.1367 111.625 13.2838 111.625 15.9727V27.1294C111.625 27.7515 111.102 28.2331 110.438 28.2331" fill="#878786"/>
<path d="M103.337 9.65187C100.46 9.65187 98.1672 7.50479 98.1672 4.81592C98.1672 2.12706 100.481 -0.0200195 103.337 -0.0200195C106.194 -0.0200195 108.507 2.12706 108.507 4.81592C108.507 7.50479 106.194 9.65187 103.337 9.65187ZM103.337 2.22739C101.788 2.22739 100.561 3.37116 100.561 4.83599C100.561 6.30082 101.788 7.44459 103.337 7.44459C104.886 7.44459 106.113 6.30082 106.113 4.83599C106.113 3.37116 104.886 2.22739 103.337 2.22739Z" fill="#878786"/>
</g>
<defs>
<clipPath id="clip0_368_48">
<rect width="135" height="91" fill="white"/>
</clipPath>
</defs>
</svg>
