<svg width="107" height="107" viewBox="0 0 107 107" fill="none" xmlns="http://www.w3.org/2000/svg">
<g clip-path="url(#clip0_368_101)">
<path d="M8.72603 58.035C7.95038 58.035 7.28266 58.6241 7.204 59.4107C7.11985 60.2504 7.73451 61.0004 8.57237 61.0864L18.7583 62.109L18.8114 62.3871C18.9028 62.8682 18.9906 63.4408 19.0656 63.9219C19.5084 66.8069 20.0096 70.0704 22.1884 71.2175C22.5012 71.3821 22.8396 71.4955 23.1909 71.5504L23.4927 71.5998L23.5092 71.9053C23.908 79.1533 26.8826 79.9125 32.5445 80.7211C33.3018 80.8308 34.1342 80.9497 35.0233 81.0979L35.2263 81.1327L35.3086 81.3193C36.0569 83.0279 36.5727 84.8591 37.0703 86.6318C38.5137 91.7741 40.001 97.0702 46.9965 97.0702C48.1216 97.0702 49.3765 96.9275 50.7248 96.6494C51.4785 96.4939 51.9998 95.8006 51.9413 95.0341C51.7584 92.6852 52.1114 89.7765 52.4535 86.9647C52.8048 84.078 53.1688 81.1071 53.0133 78.4563L53.006 78.3173L58.2362 71.3181C59.085 70.1802 59.6942 69.3643 59.6009 68.7131C59.9558 62.3725 60.0601 59.0192 58.302 57.2246C56.7837 55.6733 54.5097 55.7574 50.7431 55.8928C49.3948 55.9422 47.7557 55.9934 45.7781 55.9989L45.6428 55.9751C40.4583 54.0232 31.0755 52.3182 25.3733 52.8963L25.2654 52.9073L16.8155 48.7272C16.5795 48.6101 16.36 48.5021 16.1551 48.4015L15.9557 48.3046L15.9411 48.0832C15.8295 46.3179 15.9228 45.7929 16.0014 45.5532L16.0618 45.3703L16.2448 45.3099C16.8375 45.1178 18.4455 45.2184 19.7773 45.3264C20.3426 45.3812 20.884 45.116 21.195 44.6367C21.3944 44.3312 22.053 43.8171 22.8323 43.2262C24.4605 41.9896 26.3026 40.5901 26.1069 38.6656C26.0264 37.8753 25.6111 37.1747 24.8721 36.582L24.6763 36.4246L24.744 36.1832C26.7454 29.1218 36.7374 23.4032 40.9413 21.2738C41.0931 21.1969 41.2322 21.0945 41.3529 20.9701C42.2639 20.0243 43.1731 19.1938 44.053 18.3907C48.0008 14.785 51.7291 11.3805 46.6032 3.80143C46.1312 3.10261 45.1781 2.91968 44.4793 3.39165C43.7823 3.86363 43.5975 4.81673 44.0695 5.51555C47.7154 10.9067 45.9208 12.5458 41.9895 16.1351C41.1864 16.8686 40.2772 17.6992 39.3717 18.6212L39.2747 18.6925C33.1555 21.8299 22.7043 28.3772 21.453 36.9789C21.3579 37.6448 21.6999 38.2869 22.3055 38.576C22.4408 38.64 22.5506 38.7004 22.6421 38.7534L23.0592 38.9949L22.7244 39.3425C22.2762 39.8108 21.4658 40.4255 20.9828 40.7932C20.3938 41.2395 19.8395 41.6621 19.3748 42.103L19.2541 42.2183L19.0876 42.2073C16.5667 42.0353 14.9935 42.1469 13.916 43.2244C12.6702 44.4702 12.7342 46.4825 12.9757 49.4114C13.0196 49.951 13.3489 50.4303 13.8373 50.6645C14.3001 50.8931 24.3214 55.8526 24.3214 55.8526C24.5995 55.9898 24.905 56.0392 25.205 55.9971C30.1937 55.3147 40.0357 57.0563 44.8635 58.9497C45.0391 59.0192 45.222 59.0558 45.4104 59.0558C47.4813 59.0741 49.2814 59.0082 50.7321 58.9552L50.8547 58.9515C53.7615 58.8418 55.5726 58.8052 56.1214 59.3668C56.8733 60.1351 56.8532 63.1207 56.5532 68.3618L56.5477 68.4752L50.2144 76.9526C49.9857 77.2599 49.8796 77.6386 49.918 78.0191C50.1668 80.5125 49.79 83.5987 49.4259 86.5824C49.1405 88.9313 48.8478 91.3387 48.8405 93.5468V93.8834L48.5057 93.9218C42.4981 94.6353 41.5194 91.1412 40.0339 85.847C39.4284 83.692 38.7534 81.2882 37.6411 79.0765C37.4289 78.6539 37.0228 78.3484 36.5563 78.2606C35.2099 78.0081 33.9769 77.8325 32.9853 77.6916C27.3838 76.8904 26.4563 76.5629 26.5313 69.7448C26.5368 69.2125 26.2734 68.724 25.8234 68.4368C25.3752 68.1514 24.819 68.1185 24.3379 68.3508C24.2117 68.4112 24.1111 68.4496 24.0379 68.4752L23.8915 68.7094L23.5622 68.4697C22.911 67.9959 22.5049 66.1245 22.0951 63.4591C21.8664 61.9682 21.6853 60.7937 21.281 59.9924C21.045 59.5241 20.5749 59.2058 20.0535 59.1582C19.6419 59.118 8.88519 58.0368 8.88519 58.0368C8.83397 58.0332 8.78274 58.0295 8.73152 58.0295L8.72603 58.035ZM40.2553 20.2877L40.2461 19.5285H40.2553V20.2877Z" fill="#860063"/>
<path d="M85.2671 47.8764C85.5342 47.8764 85.7245 47.9899 85.9367 48.213C86.855 49.1698 86.941 50.7266 86.1361 51.912L78.8296 62.6962C76.9307 65.4988 76.1733 68.8831 76.6929 72.2254L76.7203 72.4083C76.8721 73.3797 77.3185 74.2359 77.7118 74.9914C78.1911 75.9097 78.471 76.4951 78.3429 76.8994L78.3137 77.0019L76.2739 85.4097C76.0745 86.2292 76.5813 87.0579 77.4008 87.2555C77.5051 87.2811 77.613 87.2958 77.7191 87.2976H77.721C78.4454 87.3232 79.0765 86.8256 79.2467 86.1305L81.2736 77.7757C81.7584 76.1384 80.9864 74.6603 80.4248 73.581C80.1119 72.9809 79.8156 72.4138 79.7424 71.9455L79.715 71.7626C79.3125 69.185 79.8979 66.5745 81.3614 64.4176L88.6661 53.6316C90.2741 51.259 90.0528 48.0905 88.1392 46.0965C86.0044 43.8719 83.6993 45.0171 81.8462 45.9373C78.8826 47.4045 75.5294 49.0692 68.9107 43.7677L68.757 43.6451L68.768 43.4494C69.1924 36.4465 75.0519 33.7976 81.2535 30.9913C82.7298 30.3236 84.2536 29.6339 85.6696 28.893C86.3007 28.5619 86.6172 27.8485 86.4416 27.157L84.6049 20.0023C84.4439 19.3565 83.8914 18.8919 83.231 18.8425C78.3265 18.4876 74.8562 19.9236 72.3206 20.9737C70.4858 21.7329 69.6681 22.0128 69.2327 21.8317C69.0699 21.753 68.8448 21.5646 68.5649 21.0524L68.479 20.895L68.7497 20.2328C69.8217 17.6515 71.5669 13.4458 68.7625 11.3494C68.4131 11.0878 67.9704 10.989 67.5478 11.075C65.4953 11.4829 64.919 11.1317 64.791 11.0146C64.4159 10.6762 64.3739 9.77427 64.6172 7.31011C64.7434 6.02955 64.8751 4.70691 64.7525 3.40988C64.672 2.57569 63.922 1.96468 63.0823 2.0342C62.678 2.07261 62.3103 2.26836 62.0506 2.58301C61.7908 2.89766 61.6682 3.29646 61.7085 3.70258C61.8036 4.69228 61.6883 5.85758 61.5786 6.98265C61.3426 9.36266 61.0993 11.7976 62.7421 13.2848C63.686 14.141 65.0288 14.4648 66.8398 14.28L67.2588 14.2379V14.6605C67.2533 15.4746 66.827 16.8942 65.9526 18.9998C65.713 19.5779 65.5044 20.0864 65.3782 20.4724C65.2648 20.8164 65.2794 21.1914 65.4148 21.528C65.841 22.5744 66.5782 24.0397 68.0527 24.6562C69.7357 25.3587 71.47 24.6398 73.4805 23.8074C75.5623 22.9458 78.1545 21.8737 81.6285 21.8518H81.9249L83.178 26.7326L82.8981 26.8679C82.0035 27.3015 81.0742 27.7222 80.1101 28.1576L80.0004 28.207C73.2646 31.2529 65.6288 34.705 65.6892 44.3659C65.691 44.8122 65.8886 45.2348 66.2307 45.5239C74.8525 52.8231 80.0809 50.2308 83.2036 48.6832C84.2884 48.1435 84.8647 47.8838 85.2671 47.8838V47.8764Z" fill="#860063"/>
<path d="M53.5 0C23.9995 0 0 23.9995 0 53.5C0 83.0005 23.9995 107 53.5 107C83.0005 107 107 83.0005 107 53.5C107 23.9995 83.0005 0 53.5 0ZM53.5 103.941C25.6862 103.941 3.05871 81.3138 3.05871 53.5C3.05871 25.6862 25.6862 3.05871 53.5 3.05871C81.3138 3.05871 103.941 25.6862 103.941 53.5C103.941 81.3138 81.3138 103.941 53.5 103.941Z" fill="#860063"/>
</g>
<defs>
<clipPath id="clip0_368_101">
<rect width="107" height="107" fill="white"/>
</clipPath>
</defs>
</svg>
