<svg width="130" height="81" viewBox="0 0 130 81" fill="none" xmlns="http://www.w3.org/2000/svg">
<path d="M23.4728 21.5034C22.5551 21.5034 21.8098 22.252 21.8098 23.1693V77.8371C21.8098 78.7564 22.5571 79.505 23.4728 79.505C24.3886 79.505 25.1359 78.7564 25.1359 77.8371V23.1693C25.1359 22.25 24.3886 21.5034 23.4728 21.5034Z" fill="#F78C2A"/>
<path d="M37.0922 12.7692C37.5025 12.7692 37.8355 12.8823 37.9881 12.9439C38.3152 13.0809 39.3737 13.6309 39.3737 15.0208V23.1714C39.3737 24.0907 40.1209 24.8373 41.0367 24.8373C41.9524 24.8373 42.6997 24.0887 42.6997 23.1714V15.0208C42.6997 12.7215 41.3816 10.7479 39.2627 9.86631C37.1418 8.98671 34.8167 9.44934 33.1933 11.0755L22.2954 21.992C21.6473 22.6413 21.6473 23.6996 22.2954 24.3488C22.9238 24.9782 24.0199 24.9782 24.6483 24.3488L35.5461 13.4323C36.0655 12.9121 36.6284 12.7692 37.0922 12.7692Z" fill="#F78C2A"/>
<path d="M54.6596 9.42529C53.2266 9.42529 51.8371 9.99117 50.7588 11.0733L39.8609 21.9918C39.5457 22.3075 39.3733 22.7244 39.3733 23.1692C39.3733 23.6139 39.5457 24.0329 39.8609 24.3486C40.4892 24.98 41.5854 24.978 42.2137 24.3486L53.1116 13.4301C54.0947 12.4473 55.2305 12.8106 55.5556 12.9457C56.2236 13.2216 56.9391 13.9106 56.9391 15.0186V22.7324C56.8222 23.3558 56.9966 23.9197 57.399 24.3228C57.7042 24.6305 58.1165 24.7993 58.5625 24.7993C59.0164 24.7993 59.4604 24.6166 59.7776 24.297C60.0868 23.9872 60.2652 23.5564 60.2652 23.1195V15.0205C60.2652 12.7213 58.947 10.7477 56.8281 9.86807C56.1165 9.57222 55.3831 9.42926 54.6596 9.42926V9.42529Z" fill="#F78C2A"/>
<path d="M72.1681 12.765C72.5804 12.765 72.9154 12.8801 73.068 12.9437C73.3911 13.0767 74.4515 13.6247 74.4515 15.0166V23.1692C74.4515 24.0885 75.1988 24.8351 76.1146 24.8351C77.0303 24.8351 77.7776 24.0865 77.7776 23.1692V15.0166C77.7776 12.7173 76.4615 10.7437 74.3405 9.86411C72.2177 8.98452 69.8926 9.44715 68.2692 11.0733L57.4249 21.9382C57.1097 22.2519 56.9373 22.6708 56.9373 23.1156C56.9373 24.0885 57.6687 24.8073 58.6003 24.8073C59.0899 24.8073 59.5537 24.5869 59.8708 24.1997L70.622 13.4282C71.1414 12.9079 71.7043 12.765 72.1661 12.765H72.1681Z" fill="#F78C2A"/>
<path d="M37.891 34.7769C35.7086 34.7769 33.9326 36.5559 33.9326 38.742V67.2285C33.9326 69.4146 35.7086 71.1936 37.891 71.1936H41.7582C43.9405 71.1936 45.7165 69.4146 45.7165 67.2285V38.742C45.7165 36.5559 43.9405 34.7769 41.7582 34.7769H37.891ZM41.7582 67.8599H37.891C37.5421 67.8599 37.2606 67.576 37.2606 67.2285V38.742C37.2606 38.3925 37.5441 38.1106 37.891 38.1106H41.7582C42.107 38.1106 42.3905 38.3945 42.3905 38.742V67.2285C42.3905 67.576 42.107 67.8599 41.7582 67.8599Z" fill="#F78C2A"/>
<path d="M65.5199 59.2166C60.2216 59.2166 55.9104 63.5331 55.9104 68.8424V78.52C55.9104 79.4393 56.6577 80.1878 57.5734 80.1878C58.4892 80.1878 59.2365 79.4393 59.2365 78.52V68.8424C59.2365 65.3737 62.0551 62.5503 65.5179 62.5503H91.0877C92.0054 62.5503 92.7507 61.8037 92.7507 60.8844C92.7507 59.9651 92.0034 59.2185 91.0877 59.2185H65.5179L65.5199 59.2166Z" fill="#F78C2A"/>
<path d="M87.6945 0.00198554C86.8362 0.00198554 86.1246 0.647285 86.0394 1.50305C85.7202 4.70573 82.6895 42.3356 82.0096 52.452C81.9482 53.3693 82.642 54.1655 83.5557 54.227C83.5993 54.231 83.635 54.231 83.6707 54.231C84.5428 54.231 85.2703 53.548 85.3278 52.6763C85.9839 42.9373 86.9987 28.5481 88.1206 15.3065L88.1523 14.9273L109.992 14.961C110.467 14.961 110.921 14.7585 111.236 14.4031C111.552 14.0477 111.702 13.5731 111.647 13.1006C111.504 11.8775 111.397 10.6087 111.282 9.26651L111.274 9.17517C111.048 6.52646 110.818 3.80231 110.325 1.34024C110.17 0.563893 109.484 0 108.693 0H87.6925L87.6945 0.00198554ZM108.15 11.6253L88.4397 11.5955L88.4794 11.1468C88.7073 8.57951 88.9353 6.0817 89.1652 3.70899L89.2009 3.3357H107.302L107.353 3.68913C107.625 5.53767 107.795 7.53115 107.958 9.4591C108.008 10.0528 108.055 10.6167 108.107 11.1746L108.148 11.6273L108.15 11.6253Z" fill="#F78C2A"/>
<path d="M109.982 11.6294C109.918 11.6294 109.857 11.6334 109.791 11.6394C108.886 11.7486 108.233 12.5805 108.342 13.4919C109.373 22.125 110.335 31.6913 111.355 41.8195C112.638 54.5528 113.964 67.7169 115.421 78.7783C115.54 79.6778 116.376 80.335 117.288 80.2119C118.196 80.0928 118.838 79.2529 118.719 78.3415C117.268 67.3277 115.946 54.1894 114.666 41.484C113.641 31.3041 112.675 21.714 111.647 13.0948C111.546 12.241 110.83 11.6274 109.982 11.6274V11.6294Z" fill="#F78C2A"/>
<path d="M15.8929 55.5176C13.2527 55.5176 11.104 57.6699 11.104 60.3166V77.837C11.104 78.7563 11.8513 79.5049 12.767 79.5049C13.6828 79.5049 14.4301 78.7563 14.4301 77.837V60.3166C14.4301 59.5085 15.0861 58.8513 15.8909 58.8513H22.0217C22.9394 58.8513 23.6847 58.1027 23.6847 57.1834C23.6847 56.2641 22.9375 55.5176 22.0217 55.5176H15.8909H15.8929Z" fill="#F78C2A"/>
<path d="M9.12781 44.1624C4.09513 44.1624 0 48.2645 0 53.3058V79.3322C0 80.2515 0.747271 80.9981 1.66303 80.9981C2.57878 80.9981 3.32605 80.2495 3.32605 79.3302V53.3038C3.32605 50.1011 5.92862 47.4941 9.12583 47.4941H22.5291C23.4469 47.4941 24.1922 46.7475 24.1922 45.8282C24.1922 44.9089 23.4449 44.1624 22.5291 44.1624H9.12781Z" fill="#F78C2A"/>
<path d="M83.1237 59.2146C82.206 59.2146 81.4607 59.9612 81.4607 60.8805C81.4607 61.7998 82.208 62.5484 83.1237 62.5484H92.5726C95.9621 62.5484 98.7807 65.3102 98.8541 68.7055L99.0662 78.5975C99.086 79.4969 99.8313 80.2276 100.729 80.2276H100.775C101.683 80.2077 102.414 79.4433 102.394 78.524L102.182 68.632C102.069 63.4379 97.7599 59.2126 92.5746 59.2126H83.1257L83.1237 59.2146Z" fill="#F78C2A"/>
<path d="M127.506 76.8958L2.38267 77.6205C1.93867 77.6225 1.52242 77.7992 1.20924 78.1149C0.896061 78.4306 0.725596 78.8515 0.72956 79.2963C0.735506 80.2096 1.4808 80.9522 2.39259 80.9522H2.40448L127.532 80.2275C128.45 80.2216 129.191 79.469 129.185 78.5497C129.179 77.6145 128.457 76.9017 127.506 76.8938V76.8958Z" fill="#F78C2A"/>
<path d="M57.506 34.9673C54.735 34.9673 52.7251 38.4241 52.7251 43.1854V55.321C52.7251 56.2403 53.4724 56.9869 54.3881 56.9869C55.3039 56.9869 56.0511 56.2403 56.0511 55.321V43.1854C56.0511 40.5427 56.8678 38.849 57.3832 38.4003L57.5001 38.299H61.7201L61.8371 38.4003C62.3524 38.847 63.171 40.5407 63.171 43.1854V50.8357C63.171 51.755 63.9183 52.5016 64.8341 52.5016C65.7498 52.5016 66.4971 51.755 66.4971 50.8357V43.1854C66.4971 38.4241 64.4852 34.9673 61.7142 34.9673H57.5041H57.506Z" fill="#F78C2A"/>
</svg>
