 <svg width="962" height="817" viewBox="0 0 962 817" fill="none" xmlns="http://www.w3.org/2000/svg">
      <g opacity="0.3" clip-path="url(#clip0_4_28)">
        <path
          d="M551.564 957.985C680.07 957.985 797.836 912.097 889.449 835.887C798.915 759.596 682.128 713.502 554.737 713.502C425.865 713.502 307.883 760.695 216.919 838.563C308.063 913.185 424.571 957.985 551.564 957.985Z"
          fill="#F8F6F8" />
        <path
          d="M360.384 637.978C303.977 586.238 268.405 512.169 268.405 429.607C268.405 273.277 395.173 146.549 551.569 146.549C707.94 146.549 834.724 273.277 834.724 429.607C834.724 511.329 799.879 584.742 744.467 636.416C826.222 662.431 900.679 704.869 964.126 759.735C1036.65 669.278 1080.13 554.545 1080.13 429.607C1080.13 137.788 843.477 -98.769 551.569 -98.769C259.636 -98.769 23 137.788 23 429.607C23 556.036 67.4807 672.053 141.57 762.994C204.632 707.592 278.825 664.643 360.384 637.978Z"
          fill="#F8F6F8" />
      </g>
      <defs>
        <clipPath id="clip0_4_28">
          <rect width="962" height="817" fill="white" />
        </clipPath>
      </defs>
    </svg>