<svg width="393" height="62" viewBox="0 0 393 62" fill="none" xmlns="http://www.w3.org/2000/svg">
          <g clip-path="url(#clip0_4_64)">
          <path d="M387.244 23.0747H393V-1.71661e-05H387.244V23.0747Z" fill="#EA9143"/>
          <path d="M369.513 0.0039959V5.65869L393 5.65869V0.0039959L369.513 0.0039959Z" fill="#EA9143"/>
          <path d="M5.75573 38.2188H0V61.2935H5.75573V38.2188Z" fill="#EA9143"/>
          <path d="M23.483 61.2936V55.6389H-0.00399208V61.2936H23.483Z" fill="#EA9143"/>
          <path d="M18.8261 15.6313H24.5699V37.9383C24.5699 44.3685 21.4521 47.2524 14.8633 46.8588V41.434C17.5806 41.6094 18.8261 40.5611 18.8261 37.9344V15.6274V15.6313ZM18.1597 9.55184C18.1597 7.66954 19.7623 6.05225 21.7218 6.05225C23.6814 6.05225 25.2403 7.66954 25.2403 9.55184C25.2403 11.4341 23.6378 13.0086 21.7218 13.0086C19.8059 13.0086 18.1597 11.4341 18.1597 9.55184Z" fill="white"/>
          <path d="M44.122 15.6313H49.8658V37.498H44.122V35.0506C42.7416 37.1044 40.5162 38.1137 37.4896 38.1137C35.0421 38.1137 33.0389 37.3265 31.4364 35.7092C29.8775 34.0919 29.0762 31.9056 29.0762 29.0608V15.6352H34.82V28.3632C34.82 31.2938 36.5574 32.8682 39.227 32.8682C42.21 32.8682 44.126 31.0756 44.126 27.4435V15.6352L44.122 15.6313Z" fill="white"/>
          <path d="M64.0587 24.2479C67.3075 24.9026 71.536 26.4341 71.4924 31.1145C71.4924 33.3437 70.6475 35.0935 68.91 36.3211C67.2202 37.5019 65.0821 38.1137 62.5434 38.1137C57.9579 38.1137 54.84 36.3639 53.1938 32.9072L58.18 30.152C58.8464 32.0343 60.2705 32.9929 62.5434 32.9929C64.5903 32.9929 65.6137 32.3811 65.6137 31.1106C65.6137 29.9298 63.8326 29.2751 61.5636 28.7061C58.2713 27.8761 54.13 26.5199 54.13 21.9719C54.13 19.8285 54.9313 18.1216 56.5338 16.8979C58.18 15.6314 60.1832 15.0156 62.5871 15.0156C66.1928 15.0156 69.3107 16.6758 71.0441 19.6532L66.1452 22.2759C65.4312 20.7872 64.2293 20.0468 62.5831 20.0468C61.1154 20.0468 60.0008 20.7483 60.0008 21.8394C60.0008 23.0203 61.7818 23.675 64.0508 24.244L64.0587 24.2479Z" fill="white"/>
          <path d="M87.9147 21.0522H82.8849V30.1481C82.8849 32.5097 84.6223 32.5526 87.9147 32.3772V37.4941C80.0368 38.367 77.1411 36.1379 77.1411 30.1481V21.0522H73.2695V15.6275H77.1411V11.2121L82.8849 9.50513V15.6275H87.9147V21.0522Z" fill="white"/>
          <path d="M120.886 15.6314H126.63V37.498H120.886V34.9181C119.149 37.0615 116.745 38.1098 113.631 38.1098C110.517 38.1098 108.109 37.0148 105.975 34.7856C103.885 32.5565 102.814 29.8012 102.814 26.5627C102.814 23.3242 103.881 20.6158 105.975 18.3827C108.113 16.1536 110.648 15.0156 113.631 15.0156C116.614 15.0156 119.153 16.0639 120.886 18.2074V15.6275V15.6314ZM114.698 32.7318C116.479 32.7318 117.947 32.1629 119.105 31.0249C120.307 29.8441 120.886 28.3554 120.886 26.5627C120.886 24.7701 120.307 23.2814 119.105 22.1473C117.947 20.9665 116.479 20.3975 114.698 20.3975C112.917 20.3975 111.449 20.9665 110.291 22.1473C109.133 23.2853 108.554 24.7701 108.554 26.5627C108.554 28.3554 109.133 29.8441 110.291 31.0249C111.449 32.1629 112.917 32.7318 114.698 32.7318Z" fill="white"/>
          <path d="M148.427 6.88232H154.171V37.4979H148.427V34.918C146.737 37.0615 144.334 38.1098 141.216 38.1098C138.098 38.1098 135.65 37.0147 133.512 34.7855C131.422 32.5564 130.351 29.8012 130.351 26.5627C130.351 23.3242 131.418 20.6157 133.512 18.3827C135.65 16.1535 138.233 15.0156 141.216 15.0156C144.199 15.0156 146.737 16.0639 148.427 18.2073V6.87842V6.88232ZM142.283 32.7318C144.064 32.7318 145.531 32.1628 146.69 31.0248C147.848 29.844 148.427 28.3553 148.427 26.5627C148.427 24.77 147.848 23.2813 146.69 22.1473C145.531 20.9664 144.064 20.3975 142.283 20.3975C140.502 20.3975 139.034 20.9664 137.832 22.1473C136.674 23.2852 136.095 24.77 136.095 26.5627C136.095 28.3553 136.674 29.844 137.832 31.0248C139.034 32.1628 140.502 32.7318 142.283 32.7318Z" fill="white"/>
          <path d="M175.996 6.88232H181.74V37.4979H175.996V34.918C174.306 37.0615 171.902 38.1098 168.784 38.1098C165.667 38.1098 163.219 37.0147 161.081 34.7855C158.991 32.5564 157.92 29.8012 157.92 26.5627C157.92 23.3242 158.987 20.6157 161.081 18.3827C163.219 16.1535 165.801 15.0156 168.784 15.0156C171.767 15.0156 174.306 16.0639 175.996 18.2073V6.87842V6.88232ZM169.851 32.7318C171.633 32.7318 173.1 32.1628 174.259 31.0248C175.417 29.844 175.996 28.3553 175.996 26.5627C175.996 24.77 175.417 23.2813 174.259 22.1473C173.1 20.9664 171.633 20.3975 169.851 20.3975C168.07 20.3975 166.603 20.9664 165.401 22.1473C164.243 23.2852 163.663 24.77 163.663 26.5627C163.663 28.3553 164.243 29.844 165.401 31.0248C166.603 32.1628 168.07 32.7318 169.851 32.7318Z" fill="white"/>
          <path d="M215.413 18.4957C217.551 20.7248 218.619 23.4372 218.619 26.6757C218.619 29.9142 217.551 32.6694 215.413 34.8986C213.323 37.1277 210.741 38.2228 207.758 38.2228C204.775 38.2228 202.236 37.1745 200.546 35.0311V37.611H194.802V6.99146H200.546V18.3203C202.236 16.1769 204.64 15.1286 207.758 15.1286C210.875 15.1286 213.323 16.2666 215.413 18.4957ZM206.687 32.8409C208.468 32.8409 209.935 32.2719 211.094 31.134C212.296 29.9532 212.875 28.4645 212.875 26.6718C212.875 24.8791 212.296 23.3904 211.094 22.2564C209.935 21.0756 208.468 20.5066 206.687 20.5066C204.906 20.5066 203.438 21.0756 202.28 22.2564C201.121 23.3943 200.542 24.8791 200.542 26.6718C200.542 28.4645 201.121 29.9532 202.28 31.134C203.438 32.2719 204.906 32.8409 206.687 32.8409Z" fill="white"/>
          <path d="M228.032 19.5011C229.099 16.703 231.772 15.304 234.799 15.304V21.6017C233.061 21.3834 231.459 21.7342 230.078 22.65C228.698 23.5697 228.032 25.0545 228.032 27.155V37.6071H222.288V15.7404H228.032V19.5011Z" fill="white"/>
          <path d="M254.565 15.7405H260.309V37.6071H254.565V35.0272C252.828 37.1706 250.424 38.219 247.31 38.219C244.196 38.219 241.788 37.1239 239.654 34.8947C237.564 32.6656 236.493 29.9104 236.493 26.6719C236.493 23.4334 237.56 20.7249 239.654 18.4918C241.792 16.2627 244.327 15.1248 247.31 15.1248C250.293 15.1248 252.832 16.1731 254.565 18.3165V15.7366V15.7405ZM248.377 32.841C250.158 32.841 251.626 32.272 252.784 31.134C253.986 29.9532 254.565 28.4645 254.565 26.6719C254.565 24.8792 253.986 23.3905 252.784 22.2564C251.626 21.0756 250.158 20.5066 248.377 20.5066C246.596 20.5066 245.128 21.0756 243.97 22.2564C242.812 23.3944 242.232 24.8792 242.232 26.6719C242.232 28.4645 242.812 29.9532 243.97 31.134C245.128 32.272 246.596 32.841 248.377 32.841Z" fill="white"/>
          <path d="M283.59 17.5332C285.192 19.1505 285.993 21.3367 285.993 24.1816V37.6071H280.25V24.8792C280.25 21.9486 278.512 20.3741 275.843 20.3741C272.86 20.3741 270.944 22.1668 270.944 25.7989V37.6071H265.2V15.7405H270.944V18.1879C272.324 16.1341 274.549 15.1248 277.576 15.1248C280.024 15.1248 282.027 15.912 283.586 17.5293L283.59 17.5332Z" fill="white"/>
          <path d="M307.465 6.99145H313.209V37.6071H307.465V35.0272C305.776 37.1706 303.372 38.2189 300.254 38.2189C297.136 38.2189 294.689 37.1238 292.55 34.8947C290.46 32.6655 289.389 29.9103 289.389 26.6718C289.389 23.4333 290.456 20.7248 292.55 18.4918C294.689 16.2626 297.271 15.1247 300.254 15.1247C303.237 15.1247 305.776 16.173 307.465 18.3164V6.98755V6.99145ZM301.321 32.8409C303.102 32.8409 304.57 32.2719 305.728 31.134C306.886 29.9532 307.465 28.4645 307.465 26.6718C307.465 24.8791 306.886 23.3904 305.728 22.2564C304.57 21.0756 303.102 20.5066 301.321 20.5066C299.54 20.5066 298.072 21.0756 296.87 22.2564C295.712 23.3943 295.133 24.8791 295.133 26.6718C295.133 28.4645 295.712 29.9532 296.87 31.134C298.072 32.2719 299.54 32.8409 301.321 32.8409Z" fill="white"/>
          <path d="M317.473 9.66097C317.473 7.77867 319.076 6.16138 320.992 6.16138C322.908 6.16138 324.554 7.77867 324.554 9.66097C324.554 11.5433 322.952 13.1177 320.992 13.1177C319.032 13.1177 317.473 11.5433 317.473 9.66097ZM318.14 37.6071V15.7404H323.884V37.6071H318.14Z" fill="white"/>
          <path d="M347.133 17.5332C348.735 19.1505 349.537 21.3367 349.537 24.1816V37.6071H343.793V24.8792C343.793 21.9486 342.055 20.3741 339.386 20.3741C336.403 20.3741 334.487 22.1668 334.487 25.7989V37.6071H328.743V15.7405H334.487V18.1879C335.867 16.1341 338.093 15.1248 341.119 15.1248C343.567 15.1248 345.57 15.912 347.129 17.5293L347.133 17.5332Z" fill="white"/>
          <path d="M371.163 15.7403H376.772V36.5586C376.772 39.9257 375.614 42.5056 373.345 44.2982C371.076 46.0909 368.359 46.9677 365.154 46.9677C360.346 46.9677 356.562 45.1322 354.602 41.6326L359.501 38.8774C360.616 40.9311 362.571 41.9405 365.332 41.9405C368.938 41.9405 371.163 40.0153 371.163 36.5625V34.2008C369.473 36.43 367.113 37.5251 364.039 37.5251C360.965 37.5251 358.251 36.43 356.113 34.2905C354.023 32.1042 352.952 29.4347 352.952 26.3287C352.952 23.2227 354.019 20.6 356.157 18.4137C358.295 16.2274 360.921 15.1323 364.035 15.1323C367.149 15.1323 369.465 16.2274 371.159 18.4565V15.7442L371.163 15.7403ZM369.382 22.0809C368.224 20.9429 366.756 20.3739 364.931 20.3739C363.107 20.3739 361.639 20.9429 360.437 22.0809C359.279 23.1759 358.7 24.6179 358.7 26.3248C358.7 29.8244 361.326 32.3185 364.931 32.3185C368.537 32.3185 371.163 29.8244 371.163 26.3248C371.163 24.6179 370.584 23.1759 369.382 22.0809Z" fill="white"/>
          </g>
          <defs>
          <clipPath id="clip0_4_64">
          <rect width="393" height="61.2936" fill="white"/>
          </clipPath>
          </defs>
          </svg>